Coordinates
version=1
nRows=7
nColumns=42
inDegrees=yes

Units are S.I. units (second, meters, Newtons, ...)
If the header above contains a line with 'inDegrees', this indicates whether rotational values are in degrees (yes) or radians (no).

endheader
time	pelvis_tilt	pelvis_list	pelvis_rotation	pelvis_tx	pelvis_ty	pelvis_tz	hip_flexion_r	hip_adduction_r	hip_rotation_r	knee_angle_r	knee_adduction_r	knee_angle_r_beta	ankle_angle_r	subtalar_angle_r	mtp_angle_r	hip_flexion_l	hip_adduction_l	hip_rotation_l	knee_angle_l	knee_adduction_l	knee_angle_l_beta	ankle_angle_l	subtalar_angle_l	mtp_angle_l	lumbar_extension	lumbar_bending	lumbar_rotation	arm_flex_r	arm_add_r	arm_rot_r	elbow_flex_r	pro_sup_r	wrist_flex_r	wrist_dev_r	arm_flex_l	arm_add_l	arm_rot_l	elbow_flex_l	pro_sup_l	wrist_flex_l	wrist_dev_l
      6.50000000	      1.53517724	    -10.02664871	    -13.52819190	     -0.30361027	      0.84738328	      0.28228806	     -2.02581223	      6.20775024	    -17.90313928	     20.52276876	     -2.82538411	      0.35818989	     16.05913565	     22.66820146	     -7.50006963	     14.85758767	    -18.24583827	    -28.00609277	     34.03193816	     -5.19493718	      0.59396937	     17.34685186	     26.31841137	     -7.50006963	    -25.71303750	      8.83959947	      2.98545779	    -10.68346354	     -3.52851438	    -11.30732235	    106.80167291	     90.00000001	      0.00000000	      0.00000000	     -0.00579677	     -8.46335973	    -16.47300444	     48.41419984	     90.00000001	      0.00000000	      0.00000000
      6.51000000	      1.76578854	     -9.96016868	    -14.26611814	     -0.30113708	      0.84961233	      0.28083425	     -2.09402577	      5.92636611	    -17.64333259	     20.96183619	     -3.14970089	      0.36585306	     14.79905284	     22.17736563	     -7.50006867	     13.43099071	    -18.01274895	    -28.92986331	     32.82552297	     -4.73408015	      0.57291345	     17.12024024	     26.78355339	     -7.50006867	    -26.03934865	      8.48116024	      3.47438215	    -10.78507191	     -3.60284445	    -10.99750057	    107.10931338	     90.00000001	      0.00000000	      0.00000000	      0.09767019	     -8.52954136	    -16.51296098	     48.52471372	     90.00000001	      0.00000000	      0.00000000
      6.52000000	      2.26335532	     -9.89719161	    -14.79196288	     -0.29825526	      0.85216126	      0.27900840	     -2.70371386	      5.43262838	    -17.17252115	     21.02136551	     -2.91993544	      0.36689204	     13.96022174	     21.43593800	     -7.50006664	     11.75266176	    -17.59056049	    -30.50845602	     31.45372562	     -4.70844021	      0.54897107	     16.65217572	     27.94878163	     -7.50006664	    -26.57282375	      8.15197384	      3.74021849	    -10.78379718	     -3.55128862	    -10.88164283	    107.28763130	     90.00000001	      0.00000000	      0.00000000	      0.14039520	     -8.59640242	    -16.53050382	     48.61424273	     90.00000001	      0.00000000	      0.00000000
      6.53000000	      2.00615936	    -10.04052519	    -15.06816478	     -0.29577839	      0.85346487	      0.27718528	     -2.40629685	      5.53729595	    -17.21614216	     21.22888783	     -3.11561328	      0.37051399	     13.60015447	     21.31279898	     -7.50006629	     11.32335585	    -17.69080684	    -30.90808986	     30.82028022	     -4.33335583	      0.53791537	     16.68270107	     28.03427107	     -7.50006629	    -26.33493122	      8.37118326	      3.68107029	    -10.76770392	     -3.45258010	    -10.76088516	    107.61112581	     90.00000001	      0.00000000	      0.00000000	      0.01204226	     -8.71700702	    -16.56286870	     48.62852388	     90.00000001	      0.00000000	      0.00000000
      6.54000000	      1.91632609	    -10.11084132	    -15.61077027	     -0.29345085	      0.85503882	      0.27561672	     -2.10975594	      5.52287771	    -17.08554550	     21.70273097	     -3.49158117	      0.37878411	     12.72155973	     21.08095610	     -7.50006577	     10.44143728	    -17.63930420	    -31.57438110	     29.78398649	     -3.84569470	      0.51982863	     16.54880289	     28.40319708	     -7.50006577	    -26.32664630	      8.35770719	      4.03203320	    -10.87773730	     -3.50532662	    -10.53775946	    107.90745547	     90.00000001	      0.00000000	      0.00000000	      0.02481865	     -8.78136670	    -16.59864038	     48.78425543	     90.00000001	      0.00000000	      0.00000000
      6.55000000	      2.54509079	     -9.96760331	    -16.20830180	     -0.29074020	      0.85749828	      0.27401661	     -2.69890764	      4.92744646	    -16.36462373	     21.97198094	     -3.38326202	      0.38348341	     11.72655129	     20.25475648	     -7.50006372	      8.60784586	    -17.03320201	    -33.21755141	     28.30949122	     -3.72463939	      0.49409383	     15.81982524	     29.89669159	     -7.50006372	    -26.97105377	      7.84350341	      4.38207354	    -10.86424323	     -3.47199303	    -10.43305953	    108.08367612	     90.00000001	      0.00000000	      0.00000000	      0.13504228	     -8.90179623	    -16.61697765	     48.98274459	     90.00000001	      0.00000000	      0.00000000
      6.56000000	      2.40081035	    -10.08332624	    -16.48529242	     -0.28826774	      0.85868863	      0.27221191	     -2.41728969	      5.00183057	    -16.19568900	     22.34871383	     -3.65639215	      0.39005864	     11.20320426	     20.05375671	     -7.50006312	      8.02053908	    -17.01484694	    -33.67954434	     27.56956936	     -3.30935187	      0.48117976	     15.77868871	     30.10639283	     -7.50006312	    -26.82818873	      8.01364388	      4.47604309	    -10.90347484	     -3.46218450	    -10.33797338	    108.30611309	     90.00000001	      0.00000000	      0.00000000	      0.07742729	     -8.96658925	    -16.63659875	     49.09709377	     90.00000001	      0.00000000	      0.00000000
